<svg xmlns="http://www.w3.org/2000/svg" width="320" height="74" viewBox="0 0 538 125"><style></style><path id="Chatguru" fill-rule="evenodd" d="M71.96 2.2c1.8.48 2.52 1.56 2.28 3.24l-1.56 9.6c-.24 1.2-.96 1.8-2.16 1.8H46.04c-8.04 0-13.68 2.04-16.8 6.24-3 4.2-5.52 12.24-7.44 24.36-2.16 11.64-2.28 19.68-.48 24.12 1.92 4.44 6.96 6.6 15 6.6h24.6c1.2 0 1.68.6 1.44 1.8l-1.56 9.72c-.12 1.56-1.2 2.64-3.12 3.12-6.12 1.2-14.04 1.8-24 1.8-12.48 0-20.4-1.8-25.8-6-7.8-7.2-8.52-19.08-5.16-41.16 2.88-18.36 7.44-30.72 13.68-37.2C22.76 3.64 33.44.4 48.68.4c9.24 0 17.04.6 23.28 1.8Zm29.88-1.08c1.2 0 1.68.6 1.56 1.92L99.68 26.8c3.72-.36 7.92-.6 12.84-.6 22.92 0 28.08 4.32 24.36 28.8L131 92.08c-.24 1.32-.96 1.92-2.16 1.92h-14.28c-1.08 0-1.56-.6-1.44-1.92l5.16-32.52c2.76-17.04.96-18-10.08-18H97.4l-8.04 50.52c-.12 1.32-.72 1.92-2.04 1.92h-14.4c-1.08 0-1.56-.6-1.44-1.92L85.64 3.04c.12-1.32.84-1.92 2.04-1.92h14.16Zm100.32 30.12c3.6 3.36 4.8 8.52 3.72 15.6l-6.6 41.52c-.36 1.8-1.44 3.12-3.24 3.72-7.68 1.68-16.92 2.52-27.72 2.52-10.08 0-15.12-.48-19.92-3.24-4.68-2.88-5.88-8.28-4.44-17.52 1.32-7.68 4.08-12.84 8.28-15.6 4.32-2.76 10.8-4.08 19.32-4.08h15.24l.72-4.32c.96-5.76-2.16-8.28-9.96-8.28h-21.6c-1.2 0-1.68-.72-1.44-2.04l1.56-9.6c.12-1.08.84-1.68 1.92-1.92 6.36-1.2 13.68-1.8 21.96-1.8 11.16 0 18.6 1.68 22.2 5.04Zm-17.04 34.44H171.2c-6.12 0-8.64 2.04-9.48 7.2-.96 5.64 1.32 7.32 9 7.32 5.04 0 9.12-.36 12.24-1.2l2.16-13.32ZM245.6 8.2c1.32-.36 2.04.36 1.68 1.8l-2.76 17.16h11.04c1.32 0 1.92.6 1.8 1.8l-1.56 9.6c-.24 1.2-.96 1.8-2.28 1.8h-11.16l-5.04 32.76c-.84 4.92.6 6.12 6 6.12h5.04c1.32 0 1.92.6 1.8 1.8l-1.68 10.2c-.24 1.32-.96 2.04-2.28 2.28-3.72.72-7.2 1.08-10.44 1.08-5.28.12-9.96-.12-13.44-2.04-3.24-2.28-5.04-5.64-3.84-13.44l6.12-38.76h-6.96c-1.32 0-1.92-.6-1.68-1.8l1.56-9.6c.12-1.2.96-1.8 2.28-1.8h6.96l2.04-13.32c.24-1.08.96-1.68 2.04-1.92L245.6 8.2Z" style="fill:#fff"/><path fill-rule="evenodd" d="M340.07 12.1c2.25.3 3 1.5 2.55 3.75L330.47 92.2c-1.95 12.45-4.2 18.75-10.2 24.75-5.85 6-15.6 8.1-31.65 8.1-10.5 0-19.65-.75-27.45-2.1-1.35-.15-1.95-1.05-1.65-2.4l1.8-11.4c.3-1.5 1.05-2.25 2.4-2.25h25.8c13.05 0 16.8-2.85 18.45-12.9l.15-.9c-6 1.05-12.15 1.65-18.6 1.65-13.65 0-22.35-3-26.1-9s-4.35-17.7-1.5-34.95c6.15-33.75 13.2-40.65 45.75-41.55 11.55 0 22.35.9 32.4 2.85Zm-21.6 16.35h-14.85c-7.05 0-11.7 1.5-13.95 4.65-2.25 3-4.2 9.3-5.85 18.75-1.5 9.75-1.5 16.2.15 19.2 1.65 2.85 6.15 4.35 13.5 4.35 5.55 0 10.05-.3 13.65-.9l7.35-46.05Zm96.99-1.65c1.2 0 1.68.6 1.44 1.8l-9.72 61.92c-.12 1.08-.84 1.8-2.04 2.04-7.44 1.32-17.16 2.04-29.16 2.04-23.16 0-28.08-4.32-24.36-28.92l5.88-37.08c.24-1.2.96-1.8 2.28-1.8h14.16c1.08 0 1.56.6 1.32 1.8l-5.04 32.52c-1.08 7.2-1.32 10.92-.96 13.8 1.44 4.32 4.08 4.2 10.92 4.32h10.92l8.04-50.64c.24-1.2.96-1.8 2.04-1.8h14.28Zm53.04.72c1.2.36 1.68 1.2 1.56 2.4l-1.56 9.84c-.24 1.2-1.08 1.8-2.4 1.8h-11.28c-6.36 0-8.52 1.2-9.36 6.12l-7.08 44.4c-.12 1.32-.72 1.92-2.04 1.92h-14.28c-1.2 0-1.68-.6-1.44-1.92l7.8-48.96c1.08-7.2 4.32-12.12 9.12-14.16 4.8-2.28 8.88-2.76 15.24-2.76 6.72 0 12 .48 15.72 1.32Zm67.68-.72c1.2 0 1.68.6 1.44 1.8l-9.72 61.92c-.12 1.08-.84 1.8-2.04 2.04-7.44 1.32-17.16 2.04-29.16 2.04-23.16 0-28.08-4.32-24.36-28.92l5.88-37.08c.24-1.2.96-1.8 2.28-1.8h14.16c1.08 0 1.56.6 1.32 1.8l-5.04 32.52c-1.08 7.2-1.32 10.92-.96 13.8 1.44 4.32 4.08 4.2 10.92 4.32h10.92l8.04-50.64c.24-1.2.96-1.8 2.04-1.8h14.28Z" style="fill:#14b67b"/></svg>