<svg width="31" height="31" viewBox="0 0 31 31" fill="none" xmlns="http://www.w3.org/2000/svg">
<path d="M17.9995 2.99988H7.99951C7.33647 2.99988 6.70059 3.26327 6.23174 3.73211C5.7629 4.20095 5.49951 4.83684 5.49951 5.49988V25.4999C5.49951 26.1629 5.7629 26.7988 6.23174 27.2676C6.70059 27.7365 7.33647 27.9999 7.99951 27.9999H22.9995C23.6626 27.9999 24.2984 27.7365 24.7673 27.2676C25.2361 26.7988 25.4995 26.1629 25.4995 25.4999V10.4999L17.9995 2.99988Z" stroke="#BAB8B9" stroke-width="1.97986" stroke-linecap="round" stroke-linejoin="round"/>
<path d="M17.9991 2.99988V10.4999H25.4991" stroke="#BAB8B9" stroke-width="1.97986" stroke-linecap="round" stroke-linejoin="round"/>
<path d="M20.4989 16.7499H10.4989" stroke="#BAB8B9" stroke-width="1.97986" stroke-linecap="round" stroke-linejoin="round"/>
<path d="M20.4989 21.7501H10.4989" stroke="#BAB8B9" stroke-width="1.97986" stroke-linecap="round" stroke-linejoin="round"/>
<path d="M12.9989 11.7498H11.7489H10.4989" stroke="#BAB8B9" stroke-width="1.97986" stroke-linecap="round" stroke-linejoin="round"/>
</svg>
