<svg width="16" height="16" viewBox="0 0 16 16" fill="none" xmlns="http://www.w3.org/2000/svg">
<g clip-path="url(#clip0_3101_1908)">
<path d="M7.33337 2.66647H2.66671C2.31309 2.66647 1.97395 2.80695 1.7239 3.057C1.47385 3.30705 1.33337 3.64618 1.33337 3.99981V13.3331C1.33337 13.6868 1.47385 14.0259 1.7239 14.2759C1.97395 14.526 2.31309 14.6665 2.66671 14.6665H12C12.3537 14.6665 12.6928 14.526 12.9428 14.2759C13.1929 14.0259 13.3334 13.6868 13.3334 13.3331V8.66647" stroke="white" stroke-width="1.23077" stroke-linecap="round" stroke-linejoin="round"/>
<path d="M12.3334 1.66662C12.5986 1.40141 12.9583 1.25241 13.3334 1.25241C13.7084 1.25241 14.0682 1.40141 14.3334 1.66662C14.5986 1.93184 14.7476 2.29155 14.7476 2.66662C14.7476 3.0417 14.5986 3.40141 14.3334 3.66662L8.00004 9.99996L5.33337 10.6666L6.00004 7.99996L12.3334 1.66662Z" stroke="white" stroke-width="1.23077" stroke-linecap="round" stroke-linejoin="round"/>
</g>
<defs>
<clipPath id="clip0_3101_1908">
<rect width="16" height="16" fill="white"/>
</clipPath>
</defs>
</svg>
