<svg width="25" height="23" viewBox="0 0 25 23" fill="none" xmlns="http://www.w3.org/2000/svg">
<path d="M10.5976 22.7614C10.2917 22.7583 9.99091 22.6821 9.72043 22.5392C9.42001 22.3812 9.16856 22.144 8.99333 21.8533C8.81809 21.5627 8.72576 21.2296 8.72634 20.8901V11.7678L1.03087 3.31218C0.790429 3.04188 0.632947 2.70805 0.577256 2.3506C0.521565 1.99315 0.570023 1.62723 0.716833 1.29659C0.863643 0.965962 1.10259 0.684621 1.40509 0.486222C1.7076 0.287823 2.06085 0.180766 2.4226 0.177856H22.515C22.8768 0.180766 23.23 0.287823 23.5325 0.486222C23.835 0.684621 24.074 0.965962 24.2208 1.29659C24.3676 1.62723 24.4161 1.99315 24.3604 2.3506C24.3047 2.70805 24.1472 3.04188 23.9068 3.31218L16.2113 11.7678V18.3874C16.2124 18.6951 16.1371 18.9983 15.9922 19.2698C15.8473 19.5412 15.6372 19.7725 15.3809 19.9428L11.6385 22.4456C11.3304 22.6516 10.9681 22.7615 10.5976 22.7614ZM2.4226 2.0491L10.1064 10.5048C10.4212 10.8502 10.5963 11.3004 10.5976 11.7678V20.8901L14.3401 18.3874V11.7678C14.3413 11.3004 14.5164 10.8502 14.8313 10.5048L22.515 2.0491H2.4226Z" fill="#BAB8B9"/>
</svg>
