<svg width="16" height="15" viewBox="0 0 16 15" fill="none" xmlns="http://www.w3.org/2000/svg">
<path d="M14.2657 6.90632L8.15085 12.6501C7.40174 13.3537 6.38573 13.749 5.32633 13.749C4.26693 13.749 3.25092 13.3537 2.5018 12.6501C1.75269 11.9464 1.33185 10.9921 1.33185 9.99695C1.33185 9.00183 1.75269 8.04747 2.5018 7.34382L8.61662 1.60007C9.11602 1.13097 9.79337 0.867432 10.4996 0.867432C11.2059 0.867432 11.8832 1.13097 12.3827 1.60007C12.8821 2.06917 13.1626 2.70541 13.1626 3.36882C13.1626 4.03223 12.8821 4.66847 12.3827 5.13757L6.26118 10.8813C6.01148 11.1159 5.67281 11.2476 5.31968 11.2476C4.96654 11.2476 4.62787 11.1159 4.37817 10.8813C4.12846 10.6468 3.98818 10.3287 3.98818 9.99695C3.98818 9.66524 4.12846 9.34712 4.37817 9.11257L10.0272 3.81257" stroke="white" stroke-width="0.9375" stroke-linecap="round" stroke-linejoin="round"/>
</svg>
