<svg width="23" height="27" viewBox="0 0 23 27" fill="none" xmlns="http://www.w3.org/2000/svg">
<path d="M5.36729 8.19666C5.36729 8.66704 5.55415 9.11817 5.88677 9.45078C6.21938 9.78339 6.6705 9.97025 7.14089 9.97025C7.61128 9.97025 8.0624 9.78339 8.39501 9.45078C8.72763 9.11817 8.91449 8.66704 8.91449 8.19666C8.91449 7.72627 8.72763 7.27515 8.39501 6.94253C8.0624 6.60992 7.61128 6.42306 7.14089 6.42306C6.6705 6.42306 6.21938 6.60992 5.88677 6.94253C5.55415 7.27515 5.36729 7.72627 5.36729 8.19666ZM21.6844 0.392822H1.58361C1.0604 0.392822 0.637695 0.81553 0.637695 1.33874V20.8483C0.637695 21.3715 1.0604 21.7942 1.58361 21.7942H21.6844C22.2076 21.7942 22.6303 21.3715 22.6303 20.8483V1.33874C22.6303 0.81553 22.2076 0.392822 21.6844 0.392822ZM20.7385 19.9024H2.52953V2.28466H20.7385V19.9024ZM14.3535 8.19666C14.3535 8.66704 14.5404 9.11817 14.873 9.45078C15.2056 9.78339 15.6567 9.97025 16.1271 9.97025C16.5975 9.97025 17.0486 9.78339 17.3812 9.45078C17.7139 9.11817 17.9007 8.66704 17.9007 8.19666C17.9007 7.72627 17.7139 7.27515 17.3812 6.94253C17.0486 6.60992 16.5975 6.42306 16.1271 6.42306C15.6567 6.42306 15.2056 6.60992 14.873 6.94253C14.5404 7.27515 14.3535 7.72627 14.3535 8.19666ZM21.7494 24.632H1.51858C1.03084 24.632 0.637695 25.0547 0.637695 25.5779V26.6421C0.637695 26.7721 0.735243 26.8786 0.856439 26.8786H22.4086C22.5298 26.8786 22.6274 26.7721 22.6274 26.6421V25.5779C22.6303 25.0547 22.2372 24.632 21.7494 24.632ZM16.1271 13.5175H7.14089C7.01083 13.5175 6.90441 13.6239 6.90441 13.7539V15.5275C6.90441 15.6576 7.01083 15.764 7.14089 15.764H16.1271C16.2572 15.764 16.3636 15.6576 16.3636 15.5275V13.7539C16.3636 13.6239 16.2572 13.5175 16.1271 13.5175Z" fill="#BAB8B9"/>
</svg>
