<svg width="31" height="31" viewBox="0 0 31 31" fill="none" xmlns="http://www.w3.org/2000/svg">
<g clip-path="url(#clip0_3101_1863)">
<path d="M20.4988 26.7502V24.2502C20.4988 22.9241 19.972 21.6524 19.0343 20.7147C18.0966 19.777 16.8249 19.2502 15.4988 19.2502H6.7487C5.4226 19.2502 4.15082 19.777 3.21314 20.7147C2.27545 21.6524 1.74866 22.9241 1.74866 24.2502V26.7502" stroke="#BAB8B9" stroke-width="1.97988" stroke-linecap="round" stroke-linejoin="round"/>
<path d="M11.1246 14.2501C13.886 14.2501 16.1246 12.0115 16.1246 9.2501C16.1246 6.48865 13.886 4.25006 11.1246 4.25006C8.36311 4.25006 6.12451 6.48865 6.12451 9.2501C6.12451 12.0115 8.36311 14.2501 11.1246 14.2501Z" stroke="#BAB8B9" stroke-width="1.97988" stroke-linecap="round" stroke-linejoin="round"/>
<path d="M21.7498 14.2499L24.2498 16.7499L29.2498 11.7499" stroke="#BAB8B9" stroke-width="1.97988" stroke-linecap="round" stroke-linejoin="round"/>
</g>
<defs>
<clipPath id="clip0_3101_1863">
<rect width="30.0002" height="30.0002" fill="white" transform="translate(0.499634 0.500061)"/>
</clipPath>
</defs>
</svg>
